<?xml version="1.0" encoding="UTF-8"?>
<svg width="30px" height="30px" viewBox="0 0 30 30" version="1.1" xmlns="http://www.w3.org/2000/svg" xmlns:xlink="http://www.w3.org/1999/xlink">
    <!-- Generator: Sketch 63 (92445) - https://sketch.com -->
    <title>Tab-resto-disabled</title>
    <desc>Created with Sketch.</desc>
    <g id="Symbols" stroke="none" stroke-width="1" fill="none" fill-rule="evenodd" stroke-linecap="round" stroke-linejoin="round">
        <g id="Tab-resto-disabled" transform="translate(0.000000, 1.000000)" stroke="#BF4758" stroke-width="1.875">
            <g id="tab-resto">
                <line x1="2.8125" y1="10.25" x2="2.8125" y2="27.125" id="Path"></line>
                <path d="M25.30875,17.75 L28.125,17.75 C28.64125,17.75 29.06125,17.33125 29.0625,16.815 C29.0725,12.02625 29.0975,6.2425 27.11375,1.45375 C26.91625,0.975 26.3675,0.7475 25.88875,0.94625 C25.53875,1.09125 25.31,1.43375 25.31,1.8125 L25.31,27.125" id="Path"></path>
                <path d="M0.9375,0.875 L0.9375,8.375 C0.9375,9.41 1.7775,10.25 2.8125,10.25 L2.8125,10.25 C3.8475,10.25 4.6875,9.41 4.6875,8.375 L4.6875,0.875" id="Path"></path>
                <path d="M20.625,9.35375 C17.42125,5.915 12.1075,5.53375 8.445,8.47875" id="Path"></path>
                <path d="M7.5,22.39625 C10.87875,26.02 16.5575,26.21875 20.18125,22.84 C20.33375,22.6975 20.4825,22.54875 20.625,22.39625" id="Path"></path>
            </g>
        </g>
    </g>
</svg>