<?xml version="1.0" encoding="UTF-8"?>
<svg width="30px" height="30px" viewBox="0 0 30 30" version="1.1" xmlns="http://www.w3.org/2000/svg" xmlns:xlink="http://www.w3.org/1999/xlink">
    <!-- Generator: Sketch 63.1 (92452) - https://sketch.com -->
    <title>Group</title>
    <desc>Created with Sketch.</desc>
    <g id="Page-1" stroke="none" stroke-width="1" fill="none" fill-rule="evenodd" stroke-linecap="round" stroke-linejoin="round">
        <g id="Group" transform="translate(1.000000, 1.000000)" stroke="#BF4758" stroke-width="1.5">
            <path d="M16.7631579,18.6052632 L16.7631579,24.1315789 L22.2894737,18.6052632 L25.9736842,18.6052632 C26.9905263,18.6052632 27.8157895,17.78 27.8157895,16.7631579 L27.8157895,2.02631579 C27.8157895,1.00947368 26.9905263,0.184210526 25.9736842,0.184210526 L11.2368421,0.184210526 C10.22,0.184210526 9.39473684,1.00947368 9.39473684,2.02631579" id="Path"></path>
            <path d="M20.9078947,5.51526163 L17.6842105,5.51526163 C16.7742105,5.51403509 16.0349123,6.25087719 16.0336842,7.16087719 C16.0336842,7.83631579 16.4438596,8.44298246 17.0701754,8.69350877 L20.3307018,9.70666667 C21.175614,10.0468421 21.5845614,11.0059649 21.244386,11.8508772 C20.9938596,12.4747368 20.3884211,12.8836842 19.7166667,12.8836842 L15.8421053,12.8836842" id="Path"></path>
            <line x1="18.6052632" y1="5.51526316" x2="18.6052632" y2="3.67315789" id="Path"></line>
            <line x1="18.6052632" y1="14.7257895" x2="18.6052632" y2="12.8836842" id="Path"></line>
            <path d="M6.63157895,4.78947368 C8.66649123,4.78947368 10.3157895,6.43877193 10.3157895,8.47368421 C10.3157895,10.5085965 8.66649123,12.1578947 6.63157895,12.1578947 C4.59666667,12.1578947 2.94736842,10.5085965 2.94736842,8.47368421 C2.94736842,6.43877193 4.59666667,4.78947368 6.63157895,4.78947368 Z" id="Path"></path>
            <path d="M9.85526316,27.8157895 L10.3157895,23.2105263 L13.0789474,23.2105263 L13.0789474,20.4473684 C13.0789474,16.887193 10.1917544,14 6.63157895,14 C3.07140351,14 0.184210526,16.887193 0.184210526,20.4473684 L0.184210526,23.2105263 L2.94736842,23.2105263 L3.40789474,27.8157895" id="Path"></path>
        </g>
    </g>
</svg>
