<?xml version="1.0" encoding="UTF-8"?>
<svg width="29px" height="18px" viewBox="0 0 29 18" version="1.1" xmlns="http://www.w3.org/2000/svg" xmlns:xlink="http://www.w3.org/1999/xlink">
    <!-- Generator: Sketch 63 (92445) - https://sketch.com -->
    <title>Group 12</title>
    <desc>Created with Sketch.</desc>
    <g id="Symbols" stroke="none" stroke-width="1" fill="none" fill-rule="evenodd">
        <g id="Group-12">
            <g id="Group-10" transform="translate(16.000000, 3.000000)" stroke="#95272E" stroke-width="0.8">
                <path d="M4.97488579,4.80769813 C4.9889266,4.85145323 2.56296742,0.0734940501 6.01415109,0.000759356244 C9.36949803,-0.0698528887 6.97455926,4.80769813 6.97455926,4.80769813" id="Stroke-1" stroke-linecap="round" stroke-linejoin="round"></path>
                <path d="M4.97488579,8.33293078 C4.9889266,8.28917568 2.56296742,13.0671349 6.01415109,13.1398696 C9.36949803,13.2105634 6.97455926,8.33293078 6.97455926,8.33293078" id="Stroke-3" stroke-linecap="round" stroke-linejoin="round"></path>
                <path d="M4.02654293,6.56004915 C4.02654293,6.56004915 -1.33084482,6.26119201 0.33176742,3.23596752 C1.94817558,0.294824662 4.97486946,4.80772262 4.97486946,4.80772262" id="Stroke-5" stroke-linecap="round"></path>
                <path d="M4.97488579,8.33293078 C4.97488579,8.33293078 2.13243681,12.7476247 0.343865379,9.7952165 C-1.39499176,6.92476752 4.02655926,6.56003283 4.02655926,6.56003283" id="Stroke-7" stroke-linecap="round"></path>
                <path d="M7.92291028,6.56004915 C7.92291028,6.56004915 13.280298,6.26119201 11.6176858,3.23596752 C10.0012776,0.294824662 6.97458375,4.80772262 6.97458375,4.80772262" id="Stroke-9"></path>
                <path d="M6.97456742,8.33293078 C6.97456742,8.33293078 9.81693477,12.7476247 11.6055062,9.7952165 C13.344445,6.92476752 7.92281232,6.56003283 7.92281232,6.56003283" id="Stroke-11" stroke-linecap="round" stroke-linejoin="round"></path>
            </g>
            <g id="Gault" fill="#95272E">
                <g id="Group-13" transform="translate(0.000000, 0.124138)">
                    <path d="M12.952652,4.92451448 C13.0324363,6.73705241 12.6374657,8.49285931 12.3476422,10.2621972 C12.0545049,12.0516455 11.7059265,13.8293007 11.8489265,15.6639352 C11.9432402,16.8749007 11.6406716,17.1580593 10.4352402,17.4744869 C9.89229902,17.6171214 5.82131307,17.5410975 4.89214216,17.2926248 C3.96297125,17.0441521 3.53670098,16.82748 2.89880882,16.5014938 C2.51836765,16.3070938 2.2332598,16.0229421 2.28016176,15.575549 C2.58311275,12.68388 1.64163235,10.0435903 0.613357843,7.40603172 C0.128916667,6.1632869 -0.118848039,4.86033517 0.28275,3.52622483 C0.786308824,1.85321793 2.06311275,0.788238621 3.84691667,0.786873103 C5.36473039,0.785631724 6.84200748,0.290401113 9.36783824,0.0540868966 C12.0595833,-0.197750098 12.8314461,2.16753517 12.952652,4.92451448 Z M10.0978137,0.889274483 C8.93380392,0.593826207 7.8582451,0.902557241 6.74572549,1.43126069 C7.52661765,1.86301241 8.22759804,2.25057103 9.06189216,2.71186759 C8.55387255,2.84370207 8.23855882,2.80112276 7.91228431,2.69932966 C7.1632549,2.46570207 6.48011765,2.07876414 5.74727451,1.81795034 C4.45747059,1.35913655 3.16282353,1.28117793 2.00569608,2.16441931 C0.828176471,3.06330207 0.769039216,4.29388138 1.02967647,5.59832276 C1.23385294,6.61985379 1.65928431,7.56528828 2.0997549,8.50153655 C2.99866667,10.41264 3.46322549,12.3916469 3.25866667,14.5073297 C3.15721569,15.5567917 3.46233333,15.9958676 4.48168627,16.3213572 C6.53989216,16.9785434 8.62588235,16.8383917 10.699,16.4088745 C11.2567255,16.2933021 11.0311373,15.8089159 11.0047549,15.422971 C10.9749314,14.9852607 10.7117451,15.0578814 10.4349216,15.0948745 C9.99432353,15.1535917 9.5555098,15.2299366 9.113,15.2687917 C8.10626471,15.3574262 7.10768627,15.3287503 6.08807843,15.0546538 C6.27619608,14.823509 6.47272549,14.7997986 6.66020588,14.8319503 C7.02943137,14.8953848 7.10539216,14.7799366 7.19919608,14.4073986 C7.41586275,13.5477434 7.7742549,12.7218538 8.07503922,11.882309 C8.17011765,12.1411366 8.13481373,12.362971 8.10562745,12.5855503 C8.02762745,13.1794262 7.92337255,13.7719366 7.88513725,14.3684193 C7.85429412,14.8493297 8.22160784,14.8698124 8.58968627,14.8236331 C8.80023529,14.7971917 9.06227451,14.8814814 8.99319608,14.4715779 C8.7427549,12.9844055 9.67595098,11.7651228 9.91734314,10.3057572 C10.1430588,10.53504 10.0460686,10.669109 10.0233824,10.7988331 C9.84571569,11.8151503 9.568,12.8189297 9.59221569,13.860571 C9.59795098,14.1074814 9.49433333,14.4954124 9.8147451,14.5446952 C10.1977353,14.6037848 10.634,14.5134124 10.8501569,14.1025159 C10.9245882,13.9611228 10.9586176,13.788571 10.9685588,13.6276883 C11.0489804,12.3257297 11.2917745,11.0517021 11.5902647,9.7816469 C12.0445,7.84869517 12.4638137,5.91090207 12.2925196,3.90048828 C12.1584412,2.32617103 11.4045686,1.2208469 10.0978137,0.889274483 Z" id="Combined-Shape"></path>
                </g>
            </g>
        </g>
    </g>
</svg>