<?xml version="1.0" encoding="UTF-8"?>
<svg width="30px" height="29px" viewBox="0 0 30 29" version="1.1" xmlns="http://www.w3.org/2000/svg" xmlns:xlink="http://www.w3.org/1999/xlink">
    <!-- Generator: Sketch 63.1 (92452) - https://sketch.com -->
    <title>restoprice</title>
    <desc>Created with Sketch.</desc>
    <g id="Page-1" stroke="none" stroke-width="1" fill="none" fill-rule="evenodd">
        <g id="restoprice" transform="translate(0.000000, 1.000000)" stroke="#BF4758">
            <line x1="2.8125" y1="10.25" x2="2.8125" y2="27.125" id="Path" stroke-width="1.875"></line>
            <path d="M25.30875,17.75 L28.125,17.75 C28.64125,17.75 29.06125,17.33125 29.0625,16.815 C29.0725,12.02625 29.0975,6.2425 27.11375,1.45375 C26.91625,0.975 26.3675,0.7475 25.88875,0.94625 C25.53875,1.09125 25.31,1.43375 25.31,1.8125 L25.31,27.125" id="Path" stroke-width="1.875"></path>
            <path d="M0.9375,0.875 L0.9375,8.375 C0.9375,9.41 1.7775,10.25 2.8125,10.25 L2.8125,10.25 C3.8475,10.25 4.6875,9.41 4.6875,8.375 L4.6875,0.875" id="Path" stroke-width="1.875"></path>
            <path d="M20.625,9.35375 C17.42125,5.915 12.1075,5.53375 8.445,8.47875" id="Path" stroke-width="1.875"></path>
            <g id="Group" transform="translate(11.700000, 10.200000)" stroke-width="2">
                <path d="M5.0657894,1.84210221 L1.8421052,1.84210221 C0.9321052,1.8408772 0.192807,2.5777193 0.1915789,3.4877193 C0.1915789,4.1631579 0.6017543,4.76982457 1.2280701,5.02035088 L4.4885965,6.03350878 C5.3335087,6.37368421 5.7424561,7.33280701 5.4022807,8.17771931 C5.1517543,8.80157891 4.5463158,9.21052631 3.8745614,9.21052631 L0,9.21052631" id="Path"></path>
                <line x1="2.7631579" y1="1.84210527" x2="2.7631579" y2="5.55111512e-16" id="Path"></line>
                <line x1="2.7631579" y1="11.0526316" x2="2.7631579" y2="9.21052631" id="Path"></line>
            </g>
            <path d="M7.5,22.39625 C10.87875,26.02 16.5575,26.21875 20.18125,22.84 C20.33375,22.6975 20.4825,22.54875 20.625,22.39625" id="Path" stroke-width="1.875"></path>
        </g>
    </g>
</svg>