<?xml version="1.0" encoding="UTF-8"?>
<svg width="26px" height="26px" viewBox="0 0 26 26" version="1.1" xmlns="http://www.w3.org/2000/svg" xmlns:xlink="http://www.w3.org/1999/xlink">
    <!-- Generator: Sketch 63.1 (92452) - https://sketch.com -->
    <title>Group</title>
    <desc>Created with Sketch.</desc>
    <g id="Page-1" stroke="none" stroke-width="1" fill="none" fill-rule="evenodd" stroke-linecap="round" stroke-linejoin="round">
        <g id="Group" transform="translate(1.000000, 1.000000)" stroke="#BF4758" stroke-width="1.5">
            <path d="M23.9117647,26.6470588 L20.3823529,21.3529412 L20.3823529,15.1764706 C20.3823529,12.8235294 15.9117647,10.3058824 14.2058824,9" id="Path"></path>
            <path d="M16.4764706,16.6976471 L12.1847059,13.2588235 C11.5858824,12.66 10.6152941,12.66 10.0164706,13.2588235 C9.41764706,13.8576471 9.41764706,14.8282353 10.0164706,15.4270588 L14.1741176,20.1176471 L14.1741176,23.0588235 C14.1741176,24.4482353 16.1588235,26.6411765 16.1588235,26.6411765" id="Path"></path>
            <path d="M14.16,20.4447059 C13.8952941,21.9882353 12.5576471,23.1176471 10.9905882,23.1176471 L3.30352941,23.1176471 C1.52823529,23.1176471 0.0882352941,21.6776471 0.0882352941,19.9023529 L0.0882352941,3.39058824 C0.0882352941,1.61529412 1.52705882,0.176470588 3.30235294,0.176470588 C3.30235294,0.176470588 3.30352941,0.176470588 3.30352941,0.176470588 L10.6764706,0.176470588 C12.6258824,0.176470588 14.2058824,1.75647059 14.2058824,3.70588235 L14.2058824,14.8823529" id="Path"></path>
            <line x1="0.0882352941" y1="17.8235294" x2="7.14705882" y2="17.8235294" id="Path"></line>
            <path d="M4.96117647,10.2870588 C5.47764706,10.9670588 6.29411765,11.3505882 7.14705882,11.3164706 C8.48705882,11.3164706 9.57411765,10.5011765 9.57411765,9.49647059 C9.57411765,8.49176471 8.48705882,7.67647059 7.14705882,7.67647059 C5.80705882,7.67647059 4.72117647,6.86117647 4.72117647,5.85529412 C4.72117647,4.84941176 5.80705882,4.03529412 7.14705882,4.03529412 C8,4.00117647 8.81529412,4.38588235 9.33294118,5.06470588" id="Path"></path>
            <line x1="7.14705882" y1="11.3164706" x2="7.14705882" y2="12.5294118" id="Path"></line>
            <line x1="7.14705882" y1="2.82352941" x2="7.14705882" y2="4.03529412" id="Path"></line>
        </g>
    </g>
</svg>