<?xml version="1.0" encoding="UTF-8"?>
<svg width="242px" height="180px" viewBox="0 0 242 180" version="1.1" xmlns="http://www.w3.org/2000/svg" xmlns:xlink="http://www.w3.org/1999/xlink">
    <!-- Generator: Sketch 63 (92445) - https://sketch.com -->
    <title>Visual onboarding 1</title>
    <desc>Created with Sketch.</desc>
    <g id="Symbols" stroke="none" stroke-width="1" fill="none" fill-rule="evenodd">
        <g id="slice/Visual-onboarding-1">
            <g id="Visual-onboarding-1">
                <ellipse id="Oval" fill="#D8D8D8" opacity="0.339867001" cx="121" cy="162.5" rx="121" ry="17.5"></ellipse>
                <g id="Asset-4" transform="translate(8.000000, 0.000000)" fill-rule="nonzero">
                    <path d="M97.3487698,96.9614286 L14.7279762,96.9614286 C6.59380952,96.9614286 0,91.6197222 0,85.0349206 L0,18.5203175 C18.9166667,18.5203175 25.8347619,49.4986111 25.8347619,74.8379365 C25.8347619,95.3580159 72.7480952,93.4573413 90.5748016,91.9530159 C90.7849868,91.9530159 90.9921693,91.9530159 91.1963492,91.9530159 C94.5833333,91.9620238 97.3487698,94.1779762 97.3487698,96.9614286 Z" id="Path" fill="#BF4758"></path>
                    <path d="M90.8180159,96.9614286 L14.7279762,96.9614286 C6.59380952,96.9614286 0,91.6197222 0,85.0349206 L0,22.2856349 C14.7730159,27.6903968 20.3669444,54.9303968 20.3669444,77.6574206 C20.3669444,98.1775 67.2802778,96.2678175 85.1069841,94.7725 L85.7375397,94.7725 C87.6683789,94.7306222 89.5222298,95.5293558 90.8180159,96.9614286 L90.8180159,96.9614286 Z" id="Path" fill="#95272E"></path>
                    <path d="M76.4863889,96.9704365 C76.4475666,98.5612439 75.6846361,100.0473 74.4145635,101.005992 C72.995178,102.119858 71.2372767,102.714302 69.4331746,102.690476 L19.4751587,102.690476 C15.5747222,102.690476 12.4219444,100.132222 12.4219444,96.9794444 L76.4863889,96.9704365 Z" id="Path" fill="#353333"></path>
                    <polygon id="Path" fill="#494441" points="77.0989286 161.133968 72.0815079 161.133968 69.0368254 146.919444 19.8715079 146.919444 16.8178175 161.133968 11.8094048 161.133968 18.1960317 123.886151 21.8352381 102.67246 29.365873 102.67246 24.8078571 123.886151 20.7903175 142.631667 68.1180159 142.631667 64.1004762 123.886151 59.5424603 102.67246 67.0640873 102.67246 70.7032937 123.886151"></polygon>
                    <polygon id="Path" fill="#353333" points="21.8352381 102.67246 29.365873 102.67246 24.8078571 123.886151 18.1960317 123.886151"></polygon>
                    <polygon id="Path" fill="#353333" points="70.7032937 123.886151 64.1004762 123.886151 59.5424603 102.67246 67.0640873 102.67246"></polygon>
                    <path d="M129.317937,96.3038492 L211.93873,96.3038492 C220.045873,96.3038492 226.666706,90.9621429 226.666706,84.3773413 L226.666706,17.871746 C207.795079,17.871746 200.876984,48.8410317 200.876984,74.1803571 C200.876984,94.7094444 153.963651,92.7997619 136.136944,91.3404762 C135.929762,91.3404762 135.722579,91.3404762 135.506389,91.3404762 C132.101389,91.3134524 129.317937,93.5203968 129.317937,96.3038492 Z" id="Path" fill="#BF4758"></path>
                    <path d="M135.839683,96.3038492 L211.93873,96.3038492 C220.045873,96.3038492 226.666706,90.9621429 226.666706,84.3773413 L226.666706,21.6190476 C211.89369,27.0238095 206.281746,54.2728175 206.281746,76.9998413 C206.281746,97.5199206 159.377421,95.619246 141.541706,94.1149206 C141.337526,94.1149206 141.130344,94.1149206 140.920159,94.1149206 C138.990019,94.0766229 137.13759,94.874744 135.839683,96.3038492 L135.839683,96.3038492 Z" id="Path" fill="#95272E"></path>
                    <path d="M157.224524,102.023889 L207.18254,102.023889 C211.073968,102.023889 214.226746,99.4656349 214.226746,96.3038492 L150.17131,96.3038492 C150.17131,99.4656349 153.333095,102.023889 157.224524,102.023889 Z" id="Path" fill="#494441"></path>
                    <polygon id="Path" fill="#494441" points="154.57619 160.476389 149.55877 160.476389 159.593611 102.014881 167.115238 102.014881 158.54869 141.974087 205.867381 141.974087 197.300833 102.014881 204.82246 102.014881 214.857302 160.476389 209.839881 160.476389 206.78619 146.270873 157.629881 146.270873"></polygon>
                    <path d="M214.235754,96.3038492 C214.196932,97.8946566 213.434001,99.3807125 212.163929,100.339405 C210.743347,101.450045 208.985559,102.041272 207.18254,102.014881 L157.224524,102.014881 C153.324087,102.014881 150.17131,99.456627 150.17131,96.3038492 L214.235754,96.3038492 Z" id="Path" fill="#353333"></path>
                    <polygon id="Path" fill="#353333" points="159.584603 102.014881 167.115238 102.014881 162.557222 123.228571 155.945397 123.228571"></polygon>
                    <polygon id="Path" fill="#353333" points="208.452659 123.228571 201.849841 123.228571 197.291825 102.014881 204.813452 102.014881"></polygon>
                    <rect id="Rectangle" fill="#494441" x="109.617579" y="41.8778968" width="7.28742063" height="114.436825"></rect>
                    <path d="M190.598929,83.8278571 C190.598929,83.8278571 160.674563,94.3040873 113.301825,94.3040873 C65.9290873,94.3040873 36.031746,83.8278571 36.031746,83.8278571 L47.1205159,26.0239286 L179.483135,26.0239286 L190.598929,83.8278571 Z" id="Path" fill="#EDEFEF"></path>
                    <polygon id="Path" fill="#C8D5D6" points="76.4953968 92.2682937 77.0899206 50.1291667 65.1724206 90.7369444"></polygon>
                    <polygon id="Path" fill="#C8D5D6" points="147.81123 92.2682937 147.216706 50.1291667 159.143214 90.7369444"></polygon>
                    <polygon id="Path" fill="#C8D5D6" points="180.600119 32.8699603 45.9224603 32.8699603 47.0844841 26.0239286 179.456111 26.0239286"></polygon>
                    <polygon id="Path" fill="#C8D5D6" points="47.1205159 26.0239286 36.0047222 83.8278571 41.8148413 85.5753968 59.1731349 31.9781746"></polygon>
                    <polygon id="Path" fill="#C8D5D6" points="179.465119 26.0239286 190.580913 83.8278571 184.770794 85.5753968 167.4125 31.9781746"></polygon>
                    <rect id="Rectangle" fill="#494441" x="84.2061905" y="150.792857" width="58.1101984" height="7.91797619"></rect>
                    <polygon id="Path" fill="#EDEFEF" points="91.9530159 0.900793651 75.7297222 26.1410317 149.55877 26.1410317 134.461468 0.900793651"></polygon>
                    <polygon id="Path" fill="#EAEAEA" points="103.699365 26.1410317 75.7297222 26.1410317 91.4755952 1.63944444 91.9530159 0.900793651"></polygon>
                    <path d="M103.699365,26.1230159 L99.1953968,26.1230159 C96.6071164,17.9558201 94.0248413,9.78862434 91.4485714,1.62142857 L91.9259921,0.882777778 L103.699365,26.1230159 Z" id="Path" fill="#CCCCCC" opacity="0.5"></path>
                    <g id="Group" opacity="0.5" transform="translate(100.888889, 8.107143)" fill="#424242">
                        <path d="M6.98115079,6.30555556 L6.81,6.65686508 L7.33246032,7.0081746 C7.71535569,7.30185439 8.0239081,7.68137386 8.23325397,8.11615079 L9.75559524,11.1878571 L8.57555556,11.1878571 L7.08924603,8.10714286 C7.04672046,8.01698473 6.98154402,7.93939374 6.90007937,7.88194444 L6.20646825,7.41353175 C6.16887567,7.38817591 6.12550714,7.37268715 6.08035714,7.36849206 L5.4047619,7.36849206 L7.20634921,11.205873 L6.02630952,11.205873 L0.621547619,0.252222222 L3.23384921,0.252222222 C4.10442089,0.441864444 4.8255686,1.04843728 5.16154762,1.87365079 L6.81900794,5.22460317 C7.02847054,5.54389479 7.08771531,5.93885987 6.98115079,6.30555556 Z M4.02654762,1.93670635 C3.95448413,1.79257937 3.81035714,1.66646825 3.71126984,1.66646825 L2.52222222,1.66646825 L4.64809524,5.93623016 L5.4047619,5.93623016 C5.4047619,5.93623016 5.4768254,5.93623016 5.49484127,5.93623016 L5.72904762,5.46781746 C5.7561813,5.39830809 5.7561813,5.32113635 5.72904762,5.25162698 L4.02654762,1.93670635 Z" id="Shape"></path>
                        <polygon id="Path" points="7.20634921 1.68448413 8.86380952 5.0084127 10.6653968 5.0084127 11.3770238 6.44968254 9.57543651 6.44968254 11.2328968 9.77361111 13.0344841 9.77361111 13.7461111 11.205873 10.7554762 11.205873 5.35071429 0.252222222 8.34134921 0.252222222 9.00793651 1.68448413"></polygon>
                        <path d="M13.3227381,3.26988095 L12.6651587,1.95472222 C12.5930952,1.81059524 12.4489683,1.68448413 12.349881,1.68448413 L11.35,1.68448413 C11.2509127,1.68448413 11.2238889,1.81059524 11.2959524,1.95472222 L12.196746,3.86440476 C12.2423278,3.95006305 12.3070631,4.02404629 12.3859127,4.08059524 L15.3675397,6.08936508 C15.8571633,6.42417953 16.2513811,6.8804789 16.5115476,7.41353175 L17.5925,9.58444444 C18.0338889,10.4852381 17.8897619,11.205873 17.2682143,11.205873 L15.7819048,11.205873 C14.9113331,11.0162308 14.1901854,10.409658 13.8542063,9.58444444 L13.1605952,8.18821429 L14.4126984,8.18821429 L15.0702778,9.50337302 C15.1250998,9.63941411 15.2427304,9.74024032 15.3855556,9.77361111 L16.3854365,9.77361111 C16.4845238,9.77361111 16.5115476,9.65650794 16.4394841,9.50337302 L15.4936508,7.60269841 C15.4481482,7.5144846 15.3835198,7.43754599 15.3044841,7.3775 L12.2868254,5.4047619 C11.8046334,5.06044896 11.4147911,4.60253889 11.1518254,4.0715873 L10.070873,1.9006746 C9.62948413,0.999880952 9.77361111,0.279246032 10.3951587,0.279246032 L11.8814683,0.279246032 C12.7520399,0.468888254 13.4731877,1.07546109 13.8091667,1.9006746 L14.5027778,3.29690476 L13.3227381,3.26988095 Z" id="Path"></path>
                        <polygon id="Path" points="15.8539683 1.68448413 17.5024206 5.0084127 19.3040079 5.0084127 20.006627 6.44968254 18.2050397 6.44968254 19.8534921 9.77361111 21.6550794 9.77361111 22.3576984 11.205873 19.3760714 11.205873 13.9713095 0.252222222 16.9529365 0.252222222 17.6645635 1.68448413"></polygon>
                        <path d="M24.258373,6.30555556 L24.0872222,6.65686508 L24.6006746,7.0081746 C25.003376,7.28910368 25.3286926,7.6670906 25.5465079,8.10714286 L27.0688492,11.1788492 L25.8888095,11.1788492 L24.3664683,8.10714286 C24.3209657,8.01892904 24.2563373,7.94199044 24.1773016,7.88194444 L23.4836905,7.41353175 C23.4424222,7.38895797 23.3963303,7.37359398 23.3485714,7.36849206 L22.6279365,7.36849206 L24.5196032,11.1788492 L23.3395635,11.1788492 L17.9348016,0.225198413 L20.5471032,0.225198413 C21.4134899,0.423298514 22.1312067,1.02698547 22.4748016,1.84662698 L24.1322619,5.19757937 C24.3296032,5.53228165 24.3754485,5.93506599 24.258373,6.30555556 L24.258373,6.30555556 Z M21.3037698,1.93670635 C21.2459088,1.79935793 21.1250149,1.698613 20.9794841,1.66646825 L19.8174603,1.66646825 L21.9343254,5.93623016 L22.6549603,5.93623016 C22.6549603,5.93623016 22.7270238,5.93623016 22.7360317,5.93623016 L22.9702381,5.46781746 C23.0040266,5.39971458 23.0040266,5.31972986 22.9702381,5.25162698 L21.3037698,1.93670635 Z" id="Shape"></path>
                        <polygon id="Path" points="26.1230159 0.252222222 30.0865079 11.205873 28.9064683 11.205873 22.0153968 0.252222222 23.1954365 0.252222222 27.7804762 7.7468254 24.9429762 0.252222222"></polygon>
                        <polygon id="Path" points="28.1768254 1.68448413 29.8252778 5.0084127 31.6268651 5.0084127 32.3384921 6.44968254 30.5369048 6.44968254 32.1853571 9.77361111 33.9869444 9.77361111 34.6985714 11.205873 31.7169444 11.205873 26.3121825 0.252222222 29.2938095 0.252222222 30.0054365 1.68448413"></polygon>
                        <path d="M34.761627,1.87365079 L38.59,9.58444444 C39.0313889,10.4852381 38.8872619,11.205873 38.2657143,11.205873 L35.6534127,11.205873 L30.2486508,0.252222222 L32.8609524,0.252222222 C33.7213103,0.44982135 34.4309237,1.05517875 34.761627,1.87365079 L34.761627,1.87365079 Z M33.626627,1.95472222 C33.5455556,1.81059524 33.4014286,1.68448413 33.3023413,1.68448413 L32.1223016,1.68448413 L36.1308333,9.79162698 L37.310873,9.79162698 C37.4189683,9.79162698 37.4369841,9.67452381 37.3649206,9.52138889 L33.626627,1.95472222 Z" id="Shape"></path>
                    </g>
                    <path d="M14.7279762,96.9704365 C6.62083333,96.9704365 0,91.6287302 0,85.0439286 L0,82.1163492 C8.01590357,83.1109276 14.5229701,89.0721235 16.2142857,96.9704365 L14.7279762,96.9704365 Z" id="Path" fill="#7F242D" opacity="0.5"></path>
                    <path d="M211.93873,96.3038492 C220.045873,96.3038492 226.666706,90.9621429 226.666706,84.3773413 L226.666706,81.4497619 C218.650803,82.4443403 212.143736,88.4055362 210.452421,96.3038492 L211.93873,96.3038492 Z" id="Path" fill="#7F242D" opacity="0.5"></path>
                </g>
            </g>
        </g>
    </g>
</svg>