<?xml version="1.0" encoding="UTF-8"?>
<svg width="30px" height="30px" viewBox="0 0 30 30" version="1.1" xmlns="http://www.w3.org/2000/svg" xmlns:xlink="http://www.w3.org/1999/xlink">
    <title>Group</title>
    <g id="Page-1" stroke="none" stroke-width="1" fill="none" fill-rule="evenodd" stroke-linecap="round" stroke-linejoin="round">
        <g id="Group" transform="translate(1.000000, 1.000000)" stroke="#BF4758" stroke-width="2">
            <path d="M7.16897849,3.81274194 C5.80147315,4.57211762 4.67430596,5.69974115 3.91548387,7.06755376" id="Path"></path>
            <path d="M6.06384409,0.169354839 C3.210259,0.980676082 0.98003846,3.211395 0.169354839,6.06516129" id="Path"></path>
            <line x1="4.12096774" y1="21.9032258" x2="23.8790323" y2="21.9032258" id="Path"></line>
            <path d="M23.8790323,21.9032258 C23.8790323,21.9032258 21.9032258,20.182957 21.9032258,14 C21.9032258,9.06048387 18.5285484,4.69 14,4.69 C9.47145161,4.69 6.09677419,9.06048387 6.09677419,14 C6.09677419,20.2158871 4.12096774,21.9032258 4.12096774,21.9032258" id="Path"></path>
            <path d="M15.9758065,25.8548387 C15.9758065,26.9460465 15.0912078,27.8306452 14,27.8306452 C12.9087922,27.8306452 12.0241935,26.9460465 12.0241935,25.8548387" id="Path"></path>
            <line x1="14" y1="4.69" x2="14" y2="2.14516129" id="Path"></line>
            <path d="M20.8310215,3.81274194 C21.5103077,4.1920005 22.1343367,4.66268141 22.6856452,5.2116129 C23.2355005,5.76260895 23.7062761,6.38720676 24.0845161,7.06755376" id="Path"></path>
            <path d="M21.9361559,0.169354839 C24.789741,0.980676082 27.0199615,3.211395 27.8306452,6.06516129" id="Path"></path>
        </g>
    </g>
</svg>